<svg xmlns="http://www.w3.org/2000/svg" viewBox="0 0 354.69 64.37"><defs><style>.cls-1,.cls-2{fill:#fff;}.cls-2{font-size:35px;font-family:JosefinSans-Bold, Josefin Sans;font-weight:700;}.cls-3{letter-spacing:-0.07em;}.cls-4{letter-spacing:-0.03em;}</style></defs><g id="Layer_1" data-name="Layer 1"><path class="cls-1" d="M76.8,47.41A11.57,11.57,0,1,1,85.55,28.3L100.1,13.57a32.3,32.3,0,0,0-46.72.17,2.26,2.26,0,0,1,.16.85c.05,4.1-1.77,7.24-3.9,10.6a11.11,11.11,0,0,0-2.14,5.43,38.41,38.41,0,0,0,.39,5.25c.18,2-1.87,2.57-3.26,1.83A32.26,32.26,0,0,0,100.1,58.12L85.37,43.48A11.31,11.31,0,0,1,76.8,47.41Z" transform="translate(-4.12 -3.66)"/><path class="cls-1" d="M64.42,23.63c0,11-9.56,19.64-20.13,19.64H23.91v23H4.12V3.81h41C57.14,3.81,64.42,11.13,64.42,23.63Zm-19.79-.18a2.89,2.89,0,0,0-3.22-3.12H23.91v6.43h17.5A3.13,3.13,0,0,0,44.63,23.45Z" transform="translate(-4.12 -3.66)"/></g><g id="Layer_2" data-name="Layer 2"><text class="cls-2" transform="translate(108.68 46.08)"><tspan class="cls-3">P</tspan><tspan class="cls-4" x="19.63" y="0">A</tspan><tspan x="43.12" y="0">UL CAST</tspan><tspan class="cls-4" x="193.06" y="0">R</tspan><tspan x="216.19" y="0">O</tspan></text></g></svg>